<?xml version="1.0" encoding="UTF-8" standalone="no"?>
<svg
   xmlns:dc="http://purl.org/dc/elements/1.1/"
   xmlns:cc="http://creativecommons.org/ns#"
   xmlns:rdf="http://www.w3.org/1999/02/22-rdf-syntax-ns#"
   xmlns:svg="http://www.w3.org/2000/svg"
   xmlns="http://www.w3.org/2000/svg"
   xmlns:sodipodi="http://sodipodi.sourceforge.net/DTD/sodipodi-0.dtd"
   xmlns:inkscape="http://www.inkscape.org/namespaces/inkscape"
   version="1.1"
   x="0px"
   y="0px"
   viewBox="0 0 100 100"
   enable-background="new 0 0 100 100"
   xml:space="preserve"
   id="svg3733"
   sodipodi:docname="noun_numpad_686166.svg"
   width="100"
   height="100"
   inkscape:version="0.92.3 (2405546, 2018-03-11)"><metadata
     id="metadata3739"><rdf:RDF><cc:Work
         rdf:about=""><dc:format>image/svg+xml</dc:format><dc:type
           rdf:resource="http://purl.org/dc/dcmitype/StillImage" /><dc:title></dc:title></cc:Work></rdf:RDF></metadata><defs
     id="defs3737" /><sodipodi:namedview
     pagecolor="#ffffff"
     bordercolor="#666666"
     borderopacity="1"
     objecttolerance="10"
     gridtolerance="10"
     guidetolerance="10"
     inkscape:pageopacity="0"
     inkscape:pageshadow="2"
     inkscape:window-width="1920"
     inkscape:window-height="1013"
     id="namedview3735"
     showgrid="false"
     inkscape:zoom="6.56"
     inkscape:cx="50"
     inkscape:cy="57.755615"
     inkscape:window-x="-9"
     inkscape:window-y="-9"
     inkscape:window-maximized="1"
     inkscape:current-layer="svg3733" /><path
     d="M 36.2,21.25 V 8.05 c 0,-1.7 -1.4,-3.1 -3.2,-3.1 H 19.9 c -1.7,0 -3.1,1.4 -3.1,3.1 v 13.2 c 0,1.7 1.4,3.1 3.1,3.1 H 33 c 1.8,0 3.2,-1.4 3.2,-3.1 z m 23.5,0 V 8.05 c 0,-1.7 -1.4,-3.1 -3.1,-3.1 H 43.4 c -1.7,0 -3.1,1.4 -3.1,3.1 v 13.2 c 0,1.7 1.4,3.1 3.1,3.1 h 13.2 c 1.7,0 3.1,-1.4 3.1,-3.1 z m 23.5,0 V 8.05 c 0,-1.7 -1.4,-3.1 -3.1,-3.1 H 67 c -1.7,0 -3.1,1.4 -3.1,3.1 v 13.2 c 0,1.7 1.4,3.1 3.1,3.1 h 13.2 c 1.6,0 3,-1.4 3,-3.1 z m -47,23.5 v -13.1 c 0,-1.7 -1.4,-3.1 -3.1,-3.1 H 19.9 c -1.7,0 -3.1,1.4 -3.1,3.1 v 13.2 c 0,1.7 1.4,3.1 3.1,3.1 H 33 c 1.8,0 3.2,-1.4 3.2,-3.2 z m 23.5,0 v -13.1 c 0,-1.7 -1.4,-3.1 -3.1,-3.1 H 43.4 c -1.7,0 -3.1,1.4 -3.1,3.1 v 13.2 c 0,1.7 1.4,3.1 3.1,3.1 h 13.2 c 1.7,0 3.1,-1.4 3.1,-3.2 z m 23.5,0 v -13.1 c 0,-1.7 -1.4,-3.1 -3.1,-3.1 H 67 c -1.7,0 -3.1,1.4 -3.1,3.1 v 13.2 c 0,1.7 1.4,3.1 3.1,3.1 h 13.2 c 1.6,0 3,-1.4 3,-3.2 z m -47,23.6 v -13.2 c 0,-1.7 -1.4,-3.1 -3.1,-3.1 H 19.9 c -1.7,0 -3.1,1.4 -3.1,3.1 v 13.2 c 0,1.7 1.4,3.1 3.1,3.1 H 33 c 1.8,0 3.2,-1.4 3.2,-3.1 z m 23.5,0 v -13.2 c 0,-1.7 -1.4,-3.1 -3.1,-3.1 H 43.4 c -1.7,0 -3.1,1.4 -3.1,3.1 v 13.2 c 0,1.7 1.4,3.1 3.1,3.1 h 13.2 c 1.7,0 3.1,-1.4 3.1,-3.1 z m 23.5,0 v -13.2 c 0,-1.7 -1.4,-3.1 -3.1,-3.1 H 67 c -1.7,0 -3.1,1.4 -3.1,3.1 v 13.2 c 0,1.7 1.4,3.1 3.1,3.1 h 13.2 c 1.6,0 3,-1.4 3,-3.1 z m -23.5,22.5 v -11 c 0,-2.3 -1.7,-4.2 -3.8,-4.2 H 20.6 c -2.1,0 -3.8,1.9 -3.8,4.2 v 11 c 0,2.3 1.7,4.2 3.8,4.2 h 35.3 c 2.1,-0.1 3.8,-1.9 3.8,-4.2 z m 23.5,1 v -13.1 c 0,-1.7 -1.4,-3.1 -3.1,-3.1 H 67 c -1.7,0 -3.1,1.4 -3.1,3.1 v 13.2 c 0,1.7 1.4,3.1 3.1,3.1 h 13.2 c 1.6,-0.1 3,-1.5 3,-3.2 z"
     id="path3727"
     style="fill:#55d400"
     inkscape:connector-curvature="0" /></svg>